<svg xmlns="http://www.w3.org/2000/svg" viewBox="0 0 512 512">
  <rect width="512" height="512" rx="96" fill="#0f1117"/>
  <rect x="32" y="32" width="448" height="448" rx="80" fill="#161b27" stroke="#3b82f6" stroke-width="8"/>
  <path fill="#f59e0b" d="M160 160h192v48c0 53-32 96-96 96s-96-43-96-96v-48z"/>
  <path fill="#d97706" d="M128 128h64v32h-64c-17.7 0-32-14.3-32-32s14.3-32 32-32zm256 0c17.7 0 32 14.3 32 32s-14.3 32-32 32h-64v-32h64z"/>
  <rect x="224" y="304" width="64" height="32" rx="8" fill="#f59e0b"/>
  <rect x="192" y="336" width="128" height="24" rx="8" fill="#92400e"/>
  <text x="256" y="420" font-family="system-ui,sans-serif" font-size="48" font-weight="700" fill="#e2e8f0" text-anchor="middle">CdM 2026</text>
</svg>
